<?xml version="1.0" encoding="utf-8"?>
<!-- Generator: Adobe Illustrator 18.1.1, SVG Export Plug-In . SVG Version: 6.00 Build 0)  -->
<svg version="1.1" id="图层_1" xmlns="http://www.w3.org/2000/svg" xmlns:xlink="http://www.w3.org/1999/xlink" x="0px" y="0px"
	 viewBox="0 0 400 80" enable-background="new 0 0 400 80" xml:space="preserve">
<g>
	<path fill="#FFFFFF" d="M39.5,1.3C18.2,1.3,1,18.8,1,40.3s17.2,38.9,38.5,38.9S78,61.8,78,40.3S60.8,1.3,39.5,1.3z M39.4,62.8
		C27,62.8,17,52.8,17,40.4S27,18,39.4,18c12.4,0,22.4,10,22.4,22.4S51.8,62.8,39.4,62.8z"/>
	<rect x="37" y="21" fill="#FFFFFF" width="5" height="38"/>
	<rect x="30" y="28" fill="#FFFFFF" width="5" height="24"/>
	<rect x="44" y="28" fill="#FFFFFF" width="4" height="24"/>
	<rect x="50" y="33" fill="#FFFFFF" width="5" height="14"/>
	<rect x="23" y="33" fill="#FFFFFF" width="4" height="14"/>
</g>
<text transform="matrix(1 0 0 1 102.8333 55.8747)" fill="#FFFFFF" font-family="'HYk2gj'" font-size="46">VOICECOIN</text>
</svg>
